<svg class="main-svg" xmlns="http://www.w3.org/2000/svg" xmlns:xlink="http://www.w3.org/1999/xlink" width="4400" height="3600" style="" viewBox="0 0 2200 1800"><rect x="0" y="0" width="2200" height="1800" style="fill: rgb(255, 255, 255); fill-opacity: 1;"/><defs id="defs-96d187"><g class="clips"><clipPath id="clip96d187xyplot" class="plotclip"><rect width="2030" height="592.8"/></clipPath><clipPath id="clip96d187x2y2plot" class="plotclip"><rect width="2030" height="592.8"/></clipPath><clipPath class="axesclip" id="clip96d187x"><rect x="110" y="0" width="2030" height="1800"/></clipPath><clipPath class="axesclip" id="clip96d187y"><rect x="0" y="140" width="2200" height="592.8"/></clipPath><clipPath class="axesclip" id="clip96d187xy"><rect x="110" y="140" width="2030" height="592.8"/></clipPath><clipPath class="axesclip" id="clip96d187y2"><rect x="0" y="1107.2" width="2200" height="592.8"/></clipPath><clipPath class="axesclip" id="clip96d187xy2"><rect x="110" y="1107.2" width="2030" height="592.8"/></clipPath><clipPath class="axesclip" id="clip96d187x2"><rect x="110" y="0" width="2030" height="1800"/></clipPath><clipPath class="axesclip" id="clip96d187x2y"><rect x="110" y="140" width="2030" height="592.8"/></clipPath><clipPath class="axesclip" id="clip96d187x2y2"><rect x="110" y="1107.2" width="2030" height="592.8"/></clipPath></g><g class="gradients"/><g class="patterns"/></defs><g class="bglayer"/><g class="layer-below"><g class="imagelayer"/><g class="shapelayer"/></g><g class="cartesianlayer"><g class="subplot xy"><g class="layer-subplot"><g class="shapelayer"/><g class="imagelayer"/></g><g class="minor-gridlayer"><g class="x"/><g class="y"/></g><g class="gridlayer"><g class="x"><path class="xgrid crisp" transform="translate(222.75,0)" d="M0,140v592.8" style="stroke: rgb(235, 240, 248); stroke-opacity: 1; stroke-width: 1px;"/><path class="xgrid crisp" transform="translate(824.25,0)" d="M0,140v592.8" style="stroke: rgb(235, 240, 248); stroke-opacity: 1; stroke-width: 1px;"/><path class="xgrid crisp" transform="translate(1425.75,0)" d="M0,140v592.8" style="stroke: rgb(235, 240, 248); stroke-opacity: 1; stroke-width: 1px;"/><path class="xgrid crisp" transform="translate(2027.25,0)" d="M0,140v592.8" style="stroke: rgb(235, 240, 248); stroke-opacity: 1; stroke-width: 1px;"/></g><g class="y"><path class="ygrid crisp" transform="translate(0,614.24)" d="M110,0h2030" style="stroke: rgb(235, 240, 248); stroke-opacity: 1; stroke-width: 1px;"/><path class="ygrid crisp" transform="translate(0,495.68)" d="M110,0h2030" style="stroke: rgb(235, 240, 248); stroke-opacity: 1; stroke-width: 1px;"/><path class="ygrid crisp" transform="translate(0,377.12)" d="M110,0h2030" style="stroke: rgb(235, 240, 248); stroke-opacity: 1; stroke-width: 1px;"/><path class="ygrid crisp" transform="translate(0,258.56)" d="M110,0h2030" style="stroke: rgb(235, 240, 248); stroke-opacity: 1; stroke-width: 1px;"/></g></g><g class="zerolinelayer"><path class="yzl zl crisp" transform="translate(0,732.8)" d="M110,0h2030" style="stroke: rgb(235, 240, 248); stroke-opacity: 1; stroke-width: 2px;"/></g><g class="layer-between"><g class="shapelayer"/><g class="imagelayer"/></g><path class="xlines-below"/><path class="ylines-below"/><g class="overlines-below"/><g class="xaxislayer-below"/><g class="yaxislayer-below"/><g class="overaxes-below"/><g class="overplot"><g class="xy" transform="translate(110,140)"><g class="scatterlayer mlayer"><g class="trace scatter trace92812c" style="stroke-miterlimit: 2; opacity: 1;"><g class="fills" clip-path="url(#clip96d187xyplot)"/><g class="errorbars"/><g class="lines"><path class="js-line" d="M112.75,417.26L714.25,391.36L1315.75,307.91L1917.25,310.79" clip-path="url(#clip96d187xyplot)" style="vector-effect: none; fill: none; stroke: rgb(29, 78, 216); stroke-opacity: 1; stroke-width: 5px; opacity: 1;"/></g><g class="points"><path class="point plotly-customdata" transform="translate(112.75,417.26)" d="M9,0A9,9 0 1,1 0,-9A9,9 0 0,1 9,0Z" style="opacity: 1; stroke-width: 0px; fill: rgb(29, 78, 216); fill-opacity: 1;"/><path class="point plotly-customdata" transform="translate(714.25,391.36)" d="M9,0A9,9 0 1,1 0,-9A9,9 0 0,1 9,0Z" style="opacity: 1; stroke-width: 0px; fill: rgb(29, 78, 216); fill-opacity: 1;"/><path class="point plotly-customdata" transform="translate(1315.75,307.91)" d="M9,0A9,9 0 1,1 0,-9A9,9 0 0,1 9,0Z" style="opacity: 1; stroke-width: 0px; fill: rgb(29, 78, 216); fill-opacity: 1;"/><path class="point plotly-customdata" transform="translate(1917.25,310.79)" d="M9,0A9,9 0 1,1 0,-9A9,9 0 0,1 9,0Z" style="opacity: 1; stroke-width: 0px; fill: rgb(29, 78, 216); fill-opacity: 1;"/></g><g class="text"><g class="textpoint" transform="translate(0,-40.15)"><text x="112.75" y="417.26" text-anchor="middle" style="font-family: 'Open Sans', verdana, arial, sans-serif; font-size: 18px; fill: rgb(42, 63, 95); fill-opacity: 1; white-space: pre;"><tspan class="line" dy="0em" x="112.75" y="417.26">0.296</tspan><tspan class="line" dy="1.3em" x="112.75" y="417.26">+0.000 vs KG</tspan></text></g><g class="textpoint" transform="translate(0,-40.15)"><text x="714.25" y="391.36" text-anchor="middle" style="font-family: 'Open Sans', verdana, arial, sans-serif; font-size: 18px; fill: rgb(42, 63, 95); fill-opacity: 1; white-space: pre;"><tspan class="line" dy="0em" x="714.25" y="391.36">0.340</tspan><tspan class="line" dy="1.3em" x="714.25" y="391.36">+0.044 vs KG</tspan></text></g><g class="textpoint" transform="translate(0,-40.15)"><text x="1315.75" y="307.91" text-anchor="middle" style="font-family: 'Open Sans', verdana, arial, sans-serif; font-size: 18px; fill: rgb(42, 63, 95); fill-opacity: 1; white-space: pre;"><tspan class="line" dy="0em" x="1315.75" y="307.91">0.481</tspan><tspan class="line" dy="1.3em" x="1315.75" y="307.91">+0.184 vs KG</tspan></text></g><g class="textpoint" transform="translate(0,-40.15)"><text x="1917.25" y="310.79" text-anchor="middle" style="font-family: 'Open Sans', verdana, arial, sans-serif; font-size: 18px; fill: rgb(42, 63, 95); fill-opacity: 1; white-space: pre;"><tspan class="line" dy="0em" x="1917.25" y="310.79">0.476</tspan><tspan class="line" dy="1.3em" x="1917.25" y="310.79">+0.180 vs KG</tspan></text></g></g></g></g></g></g><g class="zerolinelayer-above"/><path class="xlines-above crisp" d="M0,0" style="fill: none;"/><path class="ylines-above crisp" d="M0,0" style="fill: none;"/><g class="overlines-above"/><g class="xaxislayer-above"><g class="xtick"><text text-anchor="middle" x="0" y="753.8" transform="translate(222.75,0)" style="font-family: 'Open Sans', verdana, arial, sans-serif; font-size: 20px; fill: rgb(42, 63, 95); fill-opacity: 1; white-space: pre;">Course Only</text></g><g class="xtick"><text text-anchor="middle" x="0" y="753.8" transform="translate(824.25,0)" style="font-family: 'Open Sans', verdana, arial, sans-serif; font-size: 20px; fill: rgb(42, 63, 95); fill-opacity: 1; white-space: pre;">Course + Books</text></g><g class="xtick"><text text-anchor="middle" x="0" y="753.8" transform="translate(1425.75,0)" style="font-family: 'Open Sans', verdana, arial, sans-serif; font-size: 20px; fill: rgb(42, 63, 95); fill-opacity: 1; white-space: pre;">Course + Market</text></g><g class="xtick"><text text-anchor="middle" x="0" y="753.8" transform="translate(2027.25,0)" style="font-family: 'Open Sans', verdana, arial, sans-serif; font-size: 20px; fill: rgb(42, 63, 95); fill-opacity: 1; white-space: pre;">Course + Books + Market</text></g></g><g class="yaxislayer-above"><g class="ytick"><text text-anchor="end" x="109" y="7" transform="translate(0,732.8)" style="font-family: 'Open Sans', verdana, arial, sans-serif; font-size: 20px; fill: rgb(42, 63, 95); fill-opacity: 1; white-space: pre;">0</text></g><g class="ytick"><text text-anchor="end" x="109" y="7" style="font-family: 'Open Sans', verdana, arial, sans-serif; font-size: 20px; fill: rgb(42, 63, 95); fill-opacity: 1; white-space: pre;" transform="translate(0,614.24)">0.2</text></g><g class="ytick"><text text-anchor="end" x="109" y="7" style="font-family: 'Open Sans', verdana, arial, sans-serif; font-size: 20px; fill: rgb(42, 63, 95); fill-opacity: 1; white-space: pre;" transform="translate(0,495.68)">0.4</text></g><g class="ytick"><text text-anchor="end" x="109" y="7" style="font-family: 'Open Sans', verdana, arial, sans-serif; font-size: 20px; fill: rgb(42, 63, 95); fill-opacity: 1; white-space: pre;" transform="translate(0,377.12)">0.6</text></g><g class="ytick"><text text-anchor="end" x="109" y="7" style="font-family: 'Open Sans', verdana, arial, sans-serif; font-size: 20px; fill: rgb(42, 63, 95); fill-opacity: 1; white-space: pre;" transform="translate(0,258.56)">0.8</text></g><g class="ytick"><text text-anchor="end" x="109" y="7" style="font-family: 'Open Sans', verdana, arial, sans-serif; font-size: 20px; fill: rgb(42, 63, 95); fill-opacity: 1; white-space: pre;" transform="translate(0,140)">1</text></g></g><g class="overaxes-above"/></g><g class="subplot x2y2"><g class="layer-subplot"><g class="shapelayer"/><g class="imagelayer"/></g><g class="minor-gridlayer"><g class="x2"/><g class="y2"/></g><g class="gridlayer"><g class="x2"><path class="x2grid crisp" transform="translate(222.75,0)" d="M0,1107.2v592.8" style="stroke: rgb(235, 240, 248); stroke-opacity: 1; stroke-width: 1px;"/><path class="x2grid crisp" transform="translate(824.25,0)" d="M0,1107.2v592.8" style="stroke: rgb(235, 240, 248); stroke-opacity: 1; stroke-width: 1px;"/><path class="x2grid crisp" transform="translate(1425.75,0)" d="M0,1107.2v592.8" style="stroke: rgb(235, 240, 248); stroke-opacity: 1; stroke-width: 1px;"/><path class="x2grid crisp" transform="translate(2027.25,0)" d="M0,1107.2v592.8" style="stroke: rgb(235, 240, 248); stroke-opacity: 1; stroke-width: 1px;"/></g><g class="y2"><path class="y2grid crisp" transform="translate(0,1581.44)" d="M110,0h2030" style="stroke: rgb(235, 240, 248); stroke-opacity: 1; stroke-width: 1px;"/><path class="y2grid crisp" transform="translate(0,1462.88)" d="M110,0h2030" style="stroke: rgb(235, 240, 248); stroke-opacity: 1; stroke-width: 1px;"/><path class="y2grid crisp" transform="translate(0,1344.3200000000002)" d="M110,0h2030" style="stroke: rgb(235, 240, 248); stroke-opacity: 1; stroke-width: 1px;"/><path class="y2grid crisp" transform="translate(0,1225.76)" d="M110,0h2030" style="stroke: rgb(235, 240, 248); stroke-opacity: 1; stroke-width: 1px;"/></g></g><g class="zerolinelayer"><path class="y2zl zl crisp" transform="translate(0,1700)" d="M110,0h2030" style="stroke: rgb(235, 240, 248); stroke-opacity: 1; stroke-width: 2px;"/></g><g class="layer-between"><g class="shapelayer"/><g class="imagelayer"/></g><path class="xlines-below"/><path class="ylines-below"/><g class="overlines-below"/><g class="xaxislayer-below"/><g class="yaxislayer-below"/><g class="overaxes-below"/><g class="overplot"><g class="x2y2" transform="translate(110,1107.2)"><g class="scatterlayer mlayer"><g class="trace scatter tracea4c923" style="stroke-miterlimit: 2; opacity: 1;"><g class="fills" clip-path="url(#clip96d187x2y2plot)"/><g class="errorbars"/><g class="lines"><path class="js-line" d="M112.75,428.3L714.25,404.38L1315.75,319.97L1917.25,322" clip-path="url(#clip96d187x2y2plot)" style="vector-effect: none; fill: none; stroke: rgb(15, 118, 110); stroke-opacity: 1; stroke-width: 5px; opacity: 1;"/></g><g class="points"><path class="point plotly-customdata" transform="translate(112.75,428.3)" d="M9,0A9,9 0 1,1 0,-9A9,9 0 0,1 9,0Z" style="opacity: 1; stroke-width: 0px; fill: rgb(15, 118, 110); fill-opacity: 1;"/><path class="point plotly-customdata" transform="translate(714.25,404.38)" d="M9,0A9,9 0 1,1 0,-9A9,9 0 0,1 9,0Z" style="opacity: 1; stroke-width: 0px; fill: rgb(15, 118, 110); fill-opacity: 1;"/><path class="point plotly-customdata" transform="translate(1315.75,319.97)" d="M9,0A9,9 0 1,1 0,-9A9,9 0 0,1 9,0Z" style="opacity: 1; stroke-width: 0px; fill: rgb(15, 118, 110); fill-opacity: 1;"/><path class="point plotly-customdata" transform="translate(1917.25,322)" d="M9,0A9,9 0 1,1 0,-9A9,9 0 0,1 9,0Z" style="opacity: 1; stroke-width: 0px; fill: rgb(15, 118, 110); fill-opacity: 1;"/></g><g class="text"><g class="textpoint" transform="translate(0,-40.15)"><text x="112.75" y="428.3" text-anchor="middle" style="font-family: 'Open Sans', verdana, arial, sans-serif; font-size: 18px; fill: rgb(42, 63, 95); fill-opacity: 1; white-space: pre;"><tspan class="line" dy="0em" x="112.75" y="428.3">0.278</tspan><tspan class="line" dy="1.3em" x="112.75" y="428.3">0/8 >= 0.60</tspan></text></g><g class="textpoint" transform="translate(0,-40.15)"><text x="714.25" y="404.38" text-anchor="middle" style="font-family: 'Open Sans', verdana, arial, sans-serif; font-size: 18px; fill: rgb(42, 63, 95); fill-opacity: 1; white-space: pre;"><tspan class="line" dy="0em" x="714.25" y="404.38">0.318</tspan><tspan class="line" dy="1.3em" x="714.25" y="404.38">1/8 >= 0.60</tspan></text></g><g class="textpoint" transform="translate(0,-40.15)"><text x="1315.75" y="319.97" text-anchor="middle" style="font-family: 'Open Sans', verdana, arial, sans-serif; font-size: 18px; fill: rgb(42, 63, 95); fill-opacity: 1; white-space: pre;"><tspan class="line" dy="0em" x="1315.75" y="319.97">0.460</tspan><tspan class="line" dy="1.3em" x="1315.75" y="319.97">1/8 >= 0.60</tspan></text></g><g class="textpoint" transform="translate(0,-40.15)"><text x="1917.25" y="322" text-anchor="middle" style="font-family: 'Open Sans', verdana, arial, sans-serif; font-size: 18px; fill: rgb(42, 63, 95); fill-opacity: 1; white-space: pre;"><tspan class="line" dy="0em" x="1917.25" y="322">0.457</tspan><tspan class="line" dy="1.3em" x="1917.25" y="322">1/8 >= 0.60</tspan></text></g></g></g></g></g></g><g class="zerolinelayer-above"/><path class="xlines-above crisp" d="M0,0" style="fill: none;"/><path class="ylines-above crisp" d="M0,0" style="fill: none;"/><g class="overlines-above"/><g class="xaxislayer-above"><g class="x2tick"><text text-anchor="middle" x="0" y="1721" transform="translate(222.75,0)" style="font-family: 'Open Sans', verdana, arial, sans-serif; font-size: 20px; fill: rgb(42, 63, 95); fill-opacity: 1; white-space: pre;">Course Only</text></g><g class="x2tick"><text text-anchor="middle" x="0" y="1721" transform="translate(824.25,0)" style="font-family: 'Open Sans', verdana, arial, sans-serif; font-size: 20px; fill: rgb(42, 63, 95); fill-opacity: 1; white-space: pre;">Course + Books</text></g><g class="x2tick"><text text-anchor="middle" x="0" y="1721" transform="translate(1425.75,0)" style="font-family: 'Open Sans', verdana, arial, sans-serif; font-size: 20px; fill: rgb(42, 63, 95); fill-opacity: 1; white-space: pre;">Course + Market</text></g><g class="x2tick"><text text-anchor="middle" x="0" y="1721" transform="translate(2027.25,0)" style="font-family: 'Open Sans', verdana, arial, sans-serif; font-size: 20px; fill: rgb(42, 63, 95); fill-opacity: 1; white-space: pre;">Course + Books + Market</text></g></g><g class="yaxislayer-above"><g class="y2tick"><text text-anchor="end" x="109" y="7" transform="translate(0,1700)" style="font-family: 'Open Sans', verdana, arial, sans-serif; font-size: 20px; fill: rgb(42, 63, 95); fill-opacity: 1; white-space: pre;">0</text></g><g class="y2tick"><text text-anchor="end" x="109" y="7" style="font-family: 'Open Sans', verdana, arial, sans-serif; font-size: 20px; fill: rgb(42, 63, 95); fill-opacity: 1; white-space: pre;" transform="translate(0,1581.44)">0.2</text></g><g class="y2tick"><text text-anchor="end" x="109" y="7" style="font-family: 'Open Sans', verdana, arial, sans-serif; font-size: 20px; fill: rgb(42, 63, 95); fill-opacity: 1; white-space: pre;" transform="translate(0,1462.88)">0.4</text></g><g class="y2tick"><text text-anchor="end" x="109" y="7" style="font-family: 'Open Sans', verdana, arial, sans-serif; font-size: 20px; fill: rgb(42, 63, 95); fill-opacity: 1; white-space: pre;" transform="translate(0,1344.3200000000002)">0.6</text></g><g class="y2tick"><text text-anchor="end" x="109" y="7" style="font-family: 'Open Sans', verdana, arial, sans-serif; font-size: 20px; fill: rgb(42, 63, 95); fill-opacity: 1; white-space: pre;" transform="translate(0,1225.76)">0.8</text></g><g class="y2tick"><text text-anchor="end" x="109" y="7" style="font-family: 'Open Sans', verdana, arial, sans-serif; font-size: 20px; fill: rgb(42, 63, 95); fill-opacity: 1; white-space: pre;" transform="translate(0,1107.2)">1</text></g></g><g class="overaxes-above"/></g></g><g class="polarlayer"/><g class="smithlayer"/><g class="ternarylayer"/><g class="geolayer"/><g class="funnelarealayer"/><g class="pielayer"/><g class="iciclelayer"/><g class="treemaplayer"/><g class="sunburstlayer"/><g class="glimages"/><defs id="topdefs-96d187"><g class="clips"/></defs><g class="layer-above"><g class="imagelayer"/><g class="shapelayer"/></g><g class="infolayer"><g class="g-gtitle"><text class="gtitle" x="1100" y="70" text-anchor="middle" dy="0em" style="opacity: 1; font-family: 'Open Sans', verdana, arial, sans-serif; font-size: 30px; fill: rgb(42, 63, 95); fill-opacity: 1; white-space: pre;">Market Alignment Improves as Course Enrichment Increases</text></g><g class="g-xtitle"/><g class="g-x2title"/><g class="g-ytitle"><text class="ytitle" transform="rotate(-90,57.975,436.4)" x="57.975" y="436.4" text-anchor="middle" style="opacity: 1; font-family: 'Open Sans', verdana, arial, sans-serif; font-size: 24px; fill: rgb(42, 63, 95); fill-opacity: 1; white-space: pre;">Coverage score (0-1)</text></g><g class="g-y2title"><text class="y2title" transform="rotate(-90,57.975,1403.6)" x="57.975" y="1403.6" text-anchor="middle" style="opacity: 1; font-family: 'Open Sans', verdana, arial, sans-serif; font-size: 24px; fill: rgb(42, 63, 95); fill-opacity: 1; white-space: pre;">Average score (0-1)</text></g><g class="annotation" data-index="0" style="opacity: 1;"><g class="annotation-text-g" transform="rotate(0,1125,119.99999999999999)"><g class="cursor-pointer" transform="translate(876,100)"><rect class="bg" x="0.5" y="0.5" width="497" height="39" style="stroke-width: 1px; stroke: rgb(0, 0, 0); stroke-opacity: 0; fill: rgb(0, 0, 0); fill-opacity: 0;"/><text class="annotation-text" text-anchor="middle" x="249.234375" y="30" style="font-family: 'Open Sans', verdana, arial, sans-serif; font-size: 26px; fill: rgb(42, 63, 95); fill-opacity: 1; white-space: pre;">Demand-Weighted Market Skill Coverage</text></g></g></g><g class="annotation" data-index="1" style="opacity: 1;"><g class="annotation-text-g" transform="rotate(0,1125,1087.2)"><g class="cursor-pointer" transform="translate(996,1067)"><rect class="bg" x="0.5" y="0.5" width="258" height="39" style="stroke-width: 1px; stroke: rgb(0, 0, 0); stroke-opacity: 0; fill: rgb(0, 0, 0); fill-opacity: 0;"/><text class="annotation-text" text-anchor="middle" x="129.53125" y="30" style="font-family: 'Open Sans', verdana, arial, sans-serif; font-size: 26px; fill: rgb(42, 63, 95); fill-opacity: 1; white-space: pre;">Average Job-Fit Score</text></g></g></g></g></svg>